<svg version="1.1" viewBox="0.0 0.0 600.0 371.0" fill="none" stroke="none" stroke-linecap="square" stroke-miterlimit="10" width="600" height="371" xmlns:xlink="http://www.w3.org/1999/xlink" xmlns="http://www.w3.org/2000/svg"><path fill="#ffffff" fill-opacity="0.0" d="M0 0L600.0 0L600.0 371.0L0 371.0L0 0Z" fill-rule="nonzero"/><path fill="#2e5dab" d="M300.0 85.33C355.35553 85.33 404.142 110.773796 419.97885 147.90305L419.97885 172.94554C404.142 135.8163 355.35553 110.3725 300.0 110.3725Z" fill-rule="nonzero"/><path fill="#4285f4" d="M300.0 56.11375C373.80737 56.11375 438.85602 90.03882 459.9718 139.54446L419.97885 147.90305C404.142 110.773796 355.35553 85.33 300.0 85.33Z" fill-rule="nonzero"/><path fill="#993027" d="M466.95 198.02126C466.95 218.0069 459.62796 237.65862 445.6836 255.09846L445.6836 230.05597C459.62796 212.61612 466.95 192.9644 466.95 172.97874Z" fill-rule="nonzero"/><path fill="#993027" d="M419.97885 147.90305C423.44952 156.04001 425.2125 164.48685 425.2125 172.97874L425.2125 198.02126C425.2125 189.52934 423.44952 181.0825 419.97885 172.94554Z" fill-rule="nonzero"/><path fill="#db4437" d="M459.9718 139.54446C472.88797 169.82626 467.73343 202.47885 445.6836 230.05597L409.2627 215.78667C425.80008 195.10382 429.666 170.6144 419.97885 147.90305Z" fill-rule="nonzero"/><path fill="#ab7e00" d="M445.6836 255.09846C429.24396 275.65912 404.3097 292.26108 374.15204 302.72632L374.15204 277.6838C404.3097 267.21857 429.24396 250.61661 445.6836 230.05597Z" fill-rule="nonzero"/><path fill="#f4b400" d="M445.6836 230.05597C429.24396 250.61661 404.3097 267.21857 374.15204 277.6838L355.614 251.50755C378.23227 243.65862 396.93295 231.20714 409.2627 215.78667Z" fill-rule="nonzero"/><path fill="#007887" d="M174.94414 168.59592C178.28041 121.95086 233.28073 85.33 300.0 85.33L300.0 110.3725C233.28073 110.3725 178.28041 146.99336 174.94414 193.63841Z" fill-rule="nonzero"/><path fill="#00acc1" d="M133.25885 167.13498C137.70721 104.94156 211.04097 56.11375 300.0 56.11375L300.0 85.33C233.28073 85.33 178.28041 121.95086 174.94414 168.59592Z" fill-rule="nonzero"/><path fill="#783284" d="M143.18188 238.1135C136.47932 225.26735 133.05 211.69737 133.05 198.02126L133.05 172.97874C133.05 186.65488 136.47932 200.22485 143.18188 213.07098Z" fill-rule="nonzero"/><path fill="#783284" d="M174.7875 172.97874C174.7875 171.51712 174.83974 170.05573 174.94414 168.59592L174.94414 193.63841C174.83974 195.09822 174.7875 196.55962 174.7875 198.02126Z" fill-rule="nonzero"/><path fill="#ab47bc" d="M143.18188 213.07098C135.51581 198.37816 132.14146 182.75754 133.25885 167.13498L174.94414 168.59592C174.1061 180.31284 176.63686 192.0283 182.38641 203.04793Z" fill-rule="nonzero"/><path fill="#0b6e3e" d="M374.15204 302.72632C331.6211 317.48532 282.12555 318.87262 238.04495 306.5413C193.96436 294.20993 159.46727 269.32608 143.18188 238.1135L143.18188 213.07098C159.46727 244.28358 193.96436 269.16745 238.04495 281.49878C282.12555 293.83014 331.6211 292.4428 374.15204 277.6838Z" fill-rule="nonzero"/><path fill="#0f9d58" d="M374.15204 277.6838C331.6211 292.4428 282.12555 293.83014 238.04495 281.49878C193.96436 269.16745 159.46727 244.28358 143.18188 213.07098L182.38641 203.04793C194.60045 226.45737 220.47327 245.12027 253.5337 254.36877C286.59415 263.61728 323.71582 262.57678 355.614 251.50755Z" fill-rule="nonzero"/><path fill="#efefef" d="M24.8625 81.066925L22.346874 81.066925L22.346874 88.035675L21.315624 88.035675L21.315624 81.066925L18.815624 81.066925L18.815624 80.20755L24.8625 80.20755L24.8625 81.066925ZM28.70625 88.14505Q27.534374 88.14505 26.784374 87.379425Q26.05 86.598175 26.05 85.285675L26.05 85.1138Q26.05 84.2388 26.378124 83.566925Q26.70625 82.879425 27.3 82.504425Q27.89375 82.1138 28.596874 82.1138Q29.721874 82.1138 30.346874 82.8638Q30.9875 83.6138 30.9875 85.004425L30.9875 85.410675L27.05 85.410675Q27.065624 86.27005 27.534374 86.8013Q28.01875 87.33255 28.76875 87.33255Q29.3 87.33255 29.659374 87.1138Q30.01875 86.89505 30.3 86.5513L30.909374 87.02005Q30.175 88.14505 28.70625 88.14505ZM28.596874 82.9263Q27.9875 82.9263 27.58125 83.3638Q27.175 83.8013 27.08125 84.598175L29.9875 84.598175L29.9875 84.52005Q29.940624 83.77005 29.565624 83.348175Q29.20625 82.9263 28.596874 82.9263ZM35.89375 88.035675Q35.8 87.8638 35.753124 87.4263Q35.05 88.14505 34.096874 88.14505Q33.2375 88.14505 32.675 87.660675Q32.128124 87.1763 32.128124 86.4263Q32.128124 85.52005 32.815624 85.02005Q33.51875 84.504425 34.76875 84.504425L35.7375 84.504425L35.7375 84.0513Q35.7375 83.535675 35.425 83.223175Q35.1125 82.910675 34.503124 82.910675Q33.971874 82.910675 33.6125 83.191925Q33.253124 83.45755 33.253124 83.83255L32.253124 83.83255Q32.253124 83.39505 32.565624 82.9888Q32.878124 82.58255 33.39375 82.348175Q33.925 82.1138 34.565624 82.1138Q35.565624 82.1138 36.128124 82.6138Q36.70625 83.1138 36.721874 84.004425L36.721874 86.6763Q36.721874 87.473175 36.925 87.941925L36.925 88.035675L35.89375 88.035675ZM34.2375 87.285675Q34.70625 87.285675 35.128124 87.0513Q35.55 86.8013 35.7375 86.410675L35.7375 85.223175L34.95625 85.223175Q33.128124 85.223175 33.128124 86.285675Q33.128124 86.754425 33.440624 87.02005Q33.753124 87.285675 34.2375 87.285675ZM39.2375 82.223175L39.26875 82.8638Q39.909374 82.1138 40.9875 82.1138Q42.20625 82.1138 42.64375 83.0513Q42.940624 82.629425 43.39375 82.379425Q43.8625 82.1138 44.503124 82.1138Q46.409374 82.1138 46.440624 84.14505L46.440624 88.035675L45.45625 88.035675L45.45625 84.20755Q45.45625 83.58255 45.159374 83.27005Q44.878124 82.95755 44.20625 82.95755Q43.659374 82.95755 43.284374 83.285675Q42.925 83.6138 42.8625 84.1763L42.8625 88.035675L41.8625 88.035675L41.8625 84.223175Q41.8625 82.95755 40.628124 82.95755Q39.64375 82.95755 39.284374 83.785675L39.284374 88.035675L38.3 88.035675L38.3 82.223175L39.2375 82.223175ZM56.20625 85.191925Q56.20625 86.52005 55.596874 87.33255Q55.003124 88.14505 53.95625 88.14505Q52.909374 88.14505 52.3 87.473175L52.3 90.27005L51.3 90.27005L51.3 82.223175L52.20625 82.223175L52.253124 82.8638Q52.8625 82.1138 53.940624 82.1138Q54.9875 82.1138 55.596874 82.910675Q56.20625 83.691925 56.20625 85.098175L56.20625 85.191925ZM55.221874 85.08255Q55.221874 84.098175 54.8 83.535675Q54.378124 82.95755 53.64375 82.95755Q52.753124 82.95755 52.3 83.754425L52.3 86.535675Q52.7375 87.33255 53.659374 87.33255Q54.378124 87.33255 54.8 86.77005Q55.221874 86.191925 55.221874 85.08255ZM58.378124 88.035675L57.39375 88.035675L57.39375 79.785675L58.378124 79.785675L58.378124 88.035675ZM63.89375 88.035675Q63.8 87.8638 63.753124 87.4263Q63.05 88.14505 62.096874 88.14505Q61.2375 88.14505 60.675 87.660675Q60.128124 87.1763 60.128124 86.4263Q60.128124 85.52005 60.815624 85.02005Q61.51875 84.504425 62.76875 84.504425L63.7375 84.504425L63.7375 84.0513Q63.7375 83.535675 63.425 83.223175Q63.1125 82.910675 62.503124 82.910675Q61.971874 82.910675 61.6125 83.191925Q61.253124 83.45755 61.253124 83.83255L60.253124 83.83255Q60.253124 83.39505 60.565624 82.9888Q60.878124 82.58255 61.39375 82.348175Q61.925 82.1138 62.565624 82.1138Q63.565624 82.1138 64.12813 82.6138Q64.70625 83.1138 64.72188 84.004425L64.72188 86.6763Q64.72188 87.473175 64.925 87.941925L64.925 88.035675L63.89375 88.035675ZM62.2375 87.285675Q62.70625 87.285675 63.128124 87.0513Q63.55 86.8013 63.7375 86.410675L63.7375 85.223175L62.95625 85.223175Q61.128124 85.223175 61.128124 86.285675Q61.128124 86.754425 61.440624 87.02005Q61.753124 87.285675 62.2375 87.285675ZM68.20625 86.58255L69.55 82.223175L70.62813 82.223175L68.28438 88.9263Q67.7375 90.379425 66.56563 90.379425L66.37813 90.3638L66.00313 90.3013L66.00313 89.4888L66.26875 89.52005Q66.76875 89.52005 67.05 89.3013Q67.33125 89.098175 67.51875 88.566925L67.7375 87.973175L65.675 82.223175L66.75313 82.223175L68.20625 86.58255ZM73.70625 88.14505Q72.53438 88.14505 71.78438 87.379425Q71.05 86.598175 71.05 85.285675L71.05 85.1138Q71.05 84.2388 71.37813 83.566925Q71.70625 82.879425 72.3 82.504425Q72.89375 82.1138 73.59688 82.1138Q74.72188 82.1138 75.34688 82.8638Q75.9875 83.6138 75.9875 85.004425L75.9875 85.410675L72.05 85.410675Q72.06563 86.27005 72.53438 86.8013Q73.01875 87.33255 73.76875 87.33255Q74.3 87.33255 74.65938 87.1138Q75.01875 86.89505 75.3 86.5513L75.90938 87.02005Q75.175 88.14505 73.70625 88.14505ZM73.59688 82.9263Q72.9875 82.9263 72.58125 83.3638Q72.175 83.8013 72.08125 84.598175L74.9875 84.598175L74.9875 84.52005Q74.94063 83.77005 74.56563 83.348175Q74.20625 82.9263 73.59688 82.9263ZM80.1125 83.1138Q79.87813 83.08255 79.62813 83.08255Q78.64375 83.08255 78.3 83.910675L78.3 88.035675L77.3 88.035675L77.3 82.223175L78.26875 82.223175L78.28438 82.89505Q78.76875 82.1138 79.675 82.1138Q79.95625 82.1138 80.1125 82.191925L80.1125 83.1138Z" fill-rule="nonzero"/><path fill="#9e9e9e" d="M24.33125 105.035675L19.20625 105.035675L19.20625 104.316925L21.909374 101.316925Q22.503124 100.629425 22.7375 100.20755Q22.971874 99.77005 22.971874 99.316925Q22.971874 98.70755 22.596874 98.316925Q22.221874 97.9263 21.6125 97.9263Q20.8625 97.9263 20.45625 98.348175Q20.05 98.77005 20.05 99.52005L19.05 99.52005Q19.05 98.441925 19.7375 97.785675Q20.440624 97.1138 21.6125 97.1138Q22.690624 97.1138 23.33125 97.691925Q23.971874 98.254425 23.971874 99.20755Q23.971874 100.3638 22.4875 101.95755L20.39375 104.223175L24.33125 104.223175L24.33125 105.035675ZM29.39375 102.410675L30.4875 102.410675L30.4875 103.223175L29.39375 103.223175L29.39375 105.035675L28.39375 105.035675L28.39375 103.223175L24.83125 103.223175L24.83125 102.629425L28.33125 97.20755L29.39375 97.20755L29.39375 102.410675ZM25.95625 102.410675L28.39375 102.410675L28.39375 98.566925L28.284374 98.785675L25.95625 102.410675ZM31.33125 104.52005Q31.33125 104.254425 31.471874 104.08255Q31.628124 103.910675 31.925 103.910675Q32.2375 103.910675 32.39375 104.08255Q32.565624 104.254425 32.565624 104.52005Q32.565624 104.754425 32.39375 104.9263Q32.2375 105.098175 31.925 105.098175Q31.628124 105.098175 31.471874 104.9263Q31.33125 104.754425 31.33125 104.52005ZM39.33125 105.035675L34.20625 105.035675L34.20625 104.316925L36.909374 101.316925Q37.503124 100.629425 37.7375 100.20755Q37.971874 99.77005 37.971874 99.316925Q37.971874 98.70755 37.596874 98.316925Q37.221874 97.9263 36.6125 97.9263Q35.8625 97.9263 35.45625 98.348175Q35.05 98.77005 35.05 99.52005L34.05 99.52005Q34.05 98.441925 34.7375 97.785675Q35.440624 97.1138 36.6125 97.1138Q37.690624 97.1138 38.33125 97.691925Q38.971874 98.254425 38.971874 99.20755Q38.971874 100.3638 37.4875 101.95755L35.39375 104.223175L39.33125 104.223175L39.33125 105.035675ZM40.1125 98.723175Q40.1125 98.02005 40.565624 97.566925Q41.01875 97.098175 41.721874 97.098175Q42.425 97.098175 42.8625 97.566925Q43.315624 98.02005 43.315624 98.754425L43.315624 99.129425Q43.315624 99.848175 42.8625 100.3013Q42.425 100.7388 41.721874 100.7388Q41.034374 100.7388 40.565624 100.3013Q40.1125 99.848175 40.1125 99.098175L40.1125 98.723175ZM40.8625 99.129425Q40.8625 99.5513 41.096874 99.83255Q41.33125 100.098175 41.721874 100.098175Q42.1125 100.098175 42.346874 99.83255Q42.58125 99.566925 42.58125 99.1138L42.58125 98.723175Q42.58125 98.3013 42.346874 98.035675Q42.1125 97.754425 41.70625 97.754425Q41.315624 97.754425 41.08125 98.035675Q40.8625 98.3013 40.8625 98.7388L40.8625 99.129425ZM43.925 103.1138Q43.925 102.410675 44.3625 101.95755Q44.815624 101.504425 45.51875 101.504425Q46.221874 101.504425 46.675 101.95755Q47.128124 102.410675 47.128124 103.160675L47.128124 103.535675Q47.128124 104.2388 46.675 104.691925Q46.2375 105.14505 45.534374 105.14505Q44.83125 105.14505 44.378124 104.70755Q43.925 104.254425 43.925 103.504425L43.925 103.1138ZM44.659374 103.535675Q44.659374 103.95755 44.89375 104.2388Q45.14375 104.504425 45.534374 104.504425Q45.925 104.504425 46.14375 104.2388Q46.378124 103.973175 46.378124 103.52005L46.378124 103.1138Q46.378124 102.691925 46.14375 102.4263Q45.909374 102.160675 45.51875 102.160675Q45.14375 102.160675 44.89375 102.4263Q44.659374 102.691925 44.659374 103.14505L44.659374 103.535675ZM41.95625 104.441925L41.39375 104.08255L45.20625 97.973175L45.76875 98.33255L41.95625 104.441925Z" fill-rule="nonzero"/><path stroke="#757575" stroke-width="1.0" stroke-linecap="butt" d="M18.55 92.535675L127.05 92.535675L190.69102 92.535675" fill-rule="nonzero"/><path fill="#9e9e9e" d="M192.69102 92.535675C192.69102 91.43111 191.7956 90.535675 190.69102 90.535675C189.58646 90.535675 188.69102 91.43111 188.69102 92.535675C188.69102 93.64024 189.58646 94.535675 190.69102 94.535675C191.7956 94.535675 192.69102 93.64024 192.69102 92.535675" fill-rule="nonzero"/><path fill="#efefef" d="M25.20625 182.59361Q25.065624 183.84361 24.284374 184.51549Q23.51875 185.18736 22.253124 185.18736Q20.8625 185.18736 20.01875 184.20299Q19.190624 183.20299 19.190624 181.53111L19.190624 180.78111Q19.190624 179.68736 19.58125 178.85924Q19.971874 178.03111 20.675 177.59361Q21.39375 177.15611 22.33125 177.15611Q23.58125 177.15611 24.33125 177.85924Q25.08125 178.54674 25.20625 179.76549L24.175 179.76549Q24.034374 178.84361 23.58125 178.42174Q23.14375 177.99986 22.33125 177.99986Q21.346874 177.99986 20.784374 178.73424Q20.221874 179.45299 20.221874 180.81236L20.221874 181.56236Q20.221874 182.84361 20.753124 183.59361Q21.284374 184.34361 22.253124 184.34361Q23.1125 184.34361 23.565624 183.95299Q24.01875 183.56236 24.175 182.59361L25.20625 182.59361ZM26.034374 182.12486Q26.034374 181.26549 26.3625 180.59361Q26.70625 179.90611 27.3 179.53111Q27.909374 179.15611 28.675 179.15611Q29.8625 179.15611 30.596874 179.98424Q31.33125 180.79674 31.33125 182.17174L31.33125 182.23424Q31.33125 183.07799 31.003124 183.76549Q30.675 184.43736 30.065624 184.81236Q29.471874 185.18736 28.690624 185.18736Q27.503124 185.18736 26.76875 184.37486Q26.034374 183.54674 26.034374 182.18736L26.034374 182.12486ZM27.034374 182.23424Q27.034374 183.20299 27.4875 183.79674Q27.940624 184.37486 28.690624 184.37486Q29.440624 184.37486 29.878124 183.78111Q30.33125 183.18736 30.33125 182.12486Q30.33125 181.15611 29.878124 180.56236Q29.425 179.96861 28.675 179.96861Q27.940624 179.96861 27.4875 180.56236Q27.034374 181.14049 27.034374 182.23424ZM32.784374 185.07799L32.784374 180.03111L31.878124 180.03111L31.878124 179.26549L32.784374 179.26549L32.784374 178.67174Q32.784374 177.73424 33.284374 177.23424Q33.784374 176.71861 34.70625 176.71861Q35.05 176.71861 35.378124 176.81236L35.33125 177.60924Q35.08125 177.56236 34.8 177.56236Q34.315624 177.56236 34.05 177.84361Q33.784374 178.12486 33.784374 178.65611L33.784374 179.26549L35.01875 179.26549L35.01875 180.03111L33.784374 180.03111L33.784374 185.07799L32.784374 185.07799ZM36.784374 185.07799L36.784374 180.03111L35.878124 180.03111L35.878124 179.26549L36.784374 179.26549L36.784374 178.67174Q36.784374 177.73424 37.284374 177.23424Q37.784374 176.71861 38.70625 176.71861Q39.05 176.71861 39.378124 176.81236L39.33125 177.60924Q39.08125 177.56236 38.8 177.56236Q38.315624 177.56236 38.05 177.84361Q37.784374 178.12486 37.784374 178.65611L37.784374 179.26549L39.01875 179.26549L39.01875 180.03111L37.784374 180.03111L37.784374 185.07799L36.784374 185.07799ZM42.70625 185.18736Q41.534374 185.18736 40.784374 184.42174Q40.05 183.64049 40.05 182.32799L40.05 182.15611Q40.05 181.28111 40.378124 180.60924Q40.70625 179.92174 41.3 179.54674Q41.89375 179.15611 42.596874 179.15611Q43.721874 179.15611 44.346874 179.90611Q44.9875 180.65611 44.9875 182.04674L44.9875 182.45299L41.05 182.45299Q41.065624 183.31236 41.534374 183.84361Q42.01875 184.37486 42.76875 184.37486Q43.3 184.37486 43.659374 184.15611Q44.01875 183.93736 44.3 183.59361L44.909374 184.06236Q44.175 185.18736 42.70625 185.18736ZM42.596874 179.96861Q41.9875 179.96861 41.58125 180.40611Q41.175 180.84361 41.08125 181.64049L43.9875 181.64049L43.9875 181.56236Q43.940624 180.81236 43.565624 180.39049Q43.20625 179.96861 42.596874 179.96861ZM48.70625 185.18736Q47.534374 185.18736 46.784374 184.42174Q46.05 183.64049 46.05 182.32799L46.05 182.15611Q46.05 181.28111 46.378124 180.60924Q46.70625 179.92174 47.3 179.54674Q47.89375 179.15611 48.596874 179.15611Q49.721874 179.15611 50.346874 179.90611Q50.9875 180.65611 50.9875 182.04674L50.9875 182.45299L47.05 182.45299Q47.065624 183.31236 47.534374 183.84361Q48.01875 184.37486 48.76875 184.37486Q49.3 184.37486 49.659374 184.15611Q50.01875 183.93736 50.3 183.59361L50.909374 184.06236Q50.175 185.18736 48.70625 185.18736ZM48.596874 179.96861Q47.9875 179.96861 47.58125 180.40611Q47.175 180.84361 47.08125 181.64049L49.9875 181.64049L49.9875 181.56236Q49.940624 180.81236 49.565624 180.39049Q49.20625 179.96861 48.596874 179.96861Z" fill-rule="nonzero"/><path fill="#9e9e9e" d="M23.096874 194.24986L23.096874 195.09361L22.909374 195.09361Q21.753124 195.10924 21.065624 195.78111Q20.378124 196.45299 20.26875 197.65611Q20.89375 196.95299 21.95625 196.95299Q22.9875 196.95299 23.596874 197.67174Q24.20625 198.39049 24.20625 199.53111Q24.20625 200.73424 23.534374 201.46861Q22.878124 202.18736 21.784374 202.18736Q20.659374 202.18736 19.95625 201.32799Q19.253124 200.46861 19.253124 199.10924L19.253124 198.71861Q19.253124 196.56236 20.175 195.42174Q21.096874 194.28111 22.925 194.24986L23.096874 194.24986ZM21.8 197.78111Q21.284374 197.78111 20.846874 198.09361Q20.425 198.39049 20.253124 198.84361L20.253124 199.21861Q20.253124 200.18736 20.690624 200.78111Q21.128124 201.35924 21.784374 201.35924Q22.45625 201.35924 22.83125 200.87486Q23.221874 200.37486 23.221874 199.57799Q23.221874 198.76549 22.83125 198.28111Q22.440624 197.78111 21.8 197.78111ZM25.33125 201.56236Q25.33125 201.29674 25.471874 201.12486Q25.628124 200.95299 25.925 200.95299Q26.2375 200.95299 26.39375 201.12486Q26.565624 201.29674 26.565624 201.56236Q26.565624 201.79674 26.39375 201.96861Q26.2375 202.14049 25.925 202.14049Q25.628124 202.14049 25.471874 201.96861Q25.33125 201.79674 25.33125 201.56236ZM32.39375 199.45299L33.4875 199.45299L33.4875 200.26549L32.39375 200.26549L32.39375 202.07799L31.39375 202.07799L31.39375 200.26549L27.83125 200.26549L27.83125 199.67174L31.33125 194.24986L32.39375 194.24986L32.39375 199.45299ZM28.95625 199.45299L31.39375 199.45299L31.39375 195.60924L31.284374 195.82799L28.95625 199.45299ZM34.1125 195.76549Q34.1125 195.06236 34.565624 194.60924Q35.01875 194.14049 35.721874 194.14049Q36.425 194.14049 36.8625 194.60924Q37.315624 195.06236 37.315624 195.79674L37.315624 196.17174Q37.315624 196.89049 36.8625 197.34361Q36.425 197.78111 35.721874 197.78111Q35.034374 197.78111 34.565624 197.34361Q34.1125 196.89049 34.1125 196.14049L34.1125 195.76549ZM34.8625 196.17174Q34.8625 196.59361 35.096874 196.87486Q35.33125 197.14049 35.721874 197.14049Q36.1125 197.14049 36.346874 196.87486Q36.58125 196.60924 36.58125 196.15611L36.58125 195.76549Q36.58125 195.34361 36.346874 195.07799Q36.1125 194.79674 35.70625 194.79674Q35.315624 194.79674 35.08125 195.07799Q34.8625 195.34361 34.8625 195.78111L34.8625 196.17174ZM37.925 200.15611Q37.925 199.45299 38.3625 198.99986Q38.815624 198.54674 39.51875 198.54674Q40.221874 198.54674 40.675 198.99986Q41.128124 199.45299 41.128124 200.20299L41.128124 200.57799Q41.128124 201.28111 40.675 201.73424Q40.2375 202.18736 39.534374 202.18736Q38.83125 202.18736 38.378124 201.74986Q37.925 201.29674 37.925 200.54674L37.925 200.15611ZM38.659374 200.57799Q38.659374 200.99986 38.89375 201.28111Q39.14375 201.54674 39.534374 201.54674Q39.925 201.54674 40.14375 201.28111Q40.378124 201.01549 40.378124 200.56236L40.378124 200.15611Q40.378124 199.73424 40.14375 199.46861Q39.909374 199.20299 39.51875 199.20299Q39.14375 199.20299 38.89375 199.46861Q38.659374 199.73424 38.659374 200.18736L38.659374 200.57799ZM35.95625 201.48424L35.39375 201.12486L39.20625 195.01549L39.76875 195.37486L35.95625 201.48424Z" fill-rule="nonzero"/><path stroke="#757575" stroke-width="1.0" stroke-linecap="butt" d="M18.55 189.57799L127.05 189.57799L143.18024 189.57799" fill-rule="nonzero"/><path fill="#9e9e9e" d="M145.18024 189.57799C145.18024 188.47342 144.2848 187.57799 143.18024 187.57799C142.07567 187.57799 141.18024 188.47342 141.18024 189.57799C141.18024 190.68256 142.07567 191.57799 143.18024 191.57799C144.2848 191.57799 145.18024 190.68256 145.18024 189.57799" fill-rule="nonzero"/><path fill="#efefef" d="M19.45625 271.57278L19.45625 263.74466L22.01875 263.74466Q23.284374 263.74466 23.925 264.2759Q24.565624 264.80716 24.565624 265.8384Q24.565624 266.38528 24.253124 266.80716Q23.940624 267.22903 23.409374 267.4634Q24.05 267.63528 24.409374 268.13528Q24.784374 268.63528 24.784374 269.32278Q24.784374 270.36966 24.096874 270.97903Q23.409374 271.57278 22.175 271.57278L19.45625 271.57278ZM20.4875 267.91653L20.4875 270.72903L22.190624 270.72903Q22.909374 270.72903 23.315624 270.35403Q23.7375 269.97903 23.7375 269.32278Q23.7375 267.91653 22.20625 267.91653L20.4875 267.91653ZM20.4875 267.0884L22.05 267.0884Q22.721874 267.0884 23.128124 266.76028Q23.534374 266.41653 23.534374 265.8384Q23.534374 265.18216 23.159374 264.9009Q22.784374 264.60403 22.01875 264.60403L20.4875 264.60403L20.4875 267.0884ZM28.70625 271.68216Q27.534374 271.68216 26.784374 270.91653Q26.05 270.13528 26.05 268.82278L26.05 268.6509Q26.05 267.7759 26.378124 267.10403Q26.70625 266.41653 27.3 266.04153Q27.89375 265.6509 28.596874 265.6509Q29.721874 265.6509 30.346874 266.4009Q30.9875 267.1509 30.9875 268.54153L30.9875 268.94778L27.05 268.94778Q27.065624 269.80716 27.534374 270.3384Q28.01875 270.86966 28.76875 270.86966Q29.3 270.86966 29.659374 270.6509Q30.01875 270.43216 30.3 270.0884L30.909374 270.55716Q30.175 271.68216 28.70625 271.68216ZM28.596874 266.4634Q27.9875 266.4634 27.58125 266.9009Q27.175 267.3384 27.08125 268.13528L29.9875 268.13528L29.9875 268.05716Q29.940624 267.30716 29.565624 266.88528Q29.20625 266.4634 28.596874 266.4634ZM33.378124 271.57278L32.39375 271.57278L32.39375 263.32278L33.378124 263.32278L33.378124 271.57278ZM36.378124 271.57278L35.39375 271.57278L35.39375 263.32278L36.378124 263.32278L36.378124 271.57278ZM44.1125 266.6509Q43.878124 266.61966 43.628124 266.61966Q42.64375 266.61966 42.3 267.44778L42.3 271.57278L41.3 271.57278L41.3 265.76028L42.26875 265.76028L42.284374 266.43216Q42.76875 265.6509 43.675 265.6509Q43.95625 265.6509 44.1125 265.72903L44.1125 266.6509ZM46.378124 271.57278L45.39375 271.57278L45.39375 265.76028L46.378124 265.76028L46.378124 271.57278ZM45.3 264.2134Q45.3 263.97903 45.440624 263.82278Q45.596874 263.6509 45.89375 263.6509Q46.190624 263.6509 46.33125 263.82278Q46.4875 263.97903 46.4875 264.22903Q46.4875 264.4634 46.33125 264.61966Q46.190624 264.7759 45.89375 264.7759Q45.596874 264.7759 45.440624 264.61966Q45.3 264.4634 45.3 264.2134ZM49.2375 265.76028L49.26875 266.49466Q49.940624 265.6509 51.01875 265.6509Q52.8625 265.6509 52.878124 267.72903L52.878124 271.57278L51.878124 271.57278L51.878124 267.72903Q51.878124 267.10403 51.596874 266.80716Q51.315624 266.49466 50.70625 266.49466Q50.2375 266.49466 49.8625 266.76028Q49.503124 267.01028 49.3 267.43216L49.3 271.57278L48.3 271.57278L48.3 265.76028L49.2375 265.76028ZM54.065624 268.61966Q54.065624 267.26028 54.690624 266.4634Q55.315624 265.6509 56.3625 265.6509Q57.425 265.6509 58.01875 266.4009L58.065624 265.76028L58.971874 265.76028L58.971874 271.43216Q58.971874 272.55716 58.3 273.19778Q57.64375 273.85403 56.503124 273.85403Q55.878124 273.85403 55.26875 273.5884Q54.675 273.32278 54.3625 272.85403L54.878124 272.26028Q55.51875 273.05716 56.440624 273.05716Q57.159374 273.05716 57.565624 272.63528Q57.971874 272.22903 57.971874 271.49466L57.971874 270.99466Q57.378124 271.68216 56.346874 271.68216Q55.33125 271.68216 54.690624 270.86966Q54.065624 270.04153 54.065624 268.61966ZM55.065624 268.72903Q55.065624 269.7134 55.471874 270.2759Q55.878124 270.8384 56.596874 270.8384Q57.534374 270.8384 57.971874 269.97903L57.971874 267.32278Q57.51875 266.49466 56.6125 266.49466Q55.878124 266.49466 55.471874 267.05716Q55.065624 267.61966 55.065624 268.72903ZM62.70625 271.68216Q61.534374 271.68216 60.784374 270.91653Q60.05 270.13528 60.05 268.82278L60.05 268.6509Q60.05 267.7759 60.378124 267.10403Q60.70625 266.41653 61.3 266.04153Q61.89375 265.6509 62.596874 265.6509Q63.721874 265.6509 64.34688 266.4009Q64.9875 267.1509 64.9875 268.54153L64.9875 268.94778L61.05 268.94778Q61.065624 269.80716 61.534374 270.3384Q62.01875 270.86966 62.76875 270.86966Q63.3 270.86966 63.659374 270.6509Q64.01875 270.43216 64.3 270.0884L64.90938 270.55716Q64.175 271.68216 62.70625 271.68216ZM62.596874 266.4634Q61.9875 266.4634 61.58125 266.9009Q61.175 267.3384 61.08125 268.13528L63.9875 268.13528L63.9875 268.05716Q63.940624 267.30716 63.565624 266.88528Q63.20625 266.4634 62.596874 266.4634ZM69.1125 266.6509Q68.87813 266.61966 68.62813 266.61966Q67.64375 266.61966 67.3 267.44778L67.3 271.57278L66.3 271.57278L66.3 265.76028L67.26875 265.76028L67.28438 266.43216Q67.76875 265.6509 68.675 265.6509Q68.95625 265.6509 69.1125 265.72903L69.1125 266.6509Z" fill-rule="nonzero"/><path fill="#9e9e9e" d="M24.33125 288.57278L19.20625 288.57278L19.20625 287.85403L21.909374 284.85403Q22.503124 284.16653 22.7375 283.74466Q22.971874 283.30716 22.971874 282.85403Q22.971874 282.24466 22.596874 281.85403Q22.221874 281.4634 21.6125 281.4634Q20.8625 281.4634 20.45625 281.88528Q20.05 282.30716 20.05 283.05716L19.05 283.05716Q19.05 281.97903 19.7375 281.32278Q20.440624 280.6509 21.6125 280.6509Q22.690624 280.6509 23.33125 281.22903Q23.971874 281.79153 23.971874 282.74466Q23.971874 283.9009 22.4875 285.49466L20.39375 287.76028L24.33125 287.76028L24.33125 288.57278ZM29.096874 280.74466L29.096874 281.5884L28.909374 281.5884Q27.753124 281.60403 27.065624 282.2759Q26.378124 282.94778 26.26875 284.1509Q26.89375 283.44778 27.95625 283.44778Q28.9875 283.44778 29.596874 284.16653Q30.20625 284.88528 30.20625 286.0259Q30.20625 287.22903 29.534374 287.9634Q28.878124 288.68216 27.784374 288.68216Q26.659374 288.68216 25.95625 287.82278Q25.253124 286.9634 25.253124 285.60403L25.253124 285.2134Q25.253124 283.05716 26.175 281.91653Q27.096874 280.7759 28.925 280.74466L29.096874 280.74466ZM27.8 284.2759Q27.284374 284.2759 26.846874 284.5884Q26.425 284.88528 26.253124 285.3384L26.253124 285.7134Q26.253124 286.68216 26.690624 287.2759Q27.128124 287.85403 27.784374 287.85403Q28.45625 287.85403 28.83125 287.36966Q29.221874 286.86966 29.221874 286.07278Q29.221874 285.26028 28.83125 284.7759Q28.440624 284.2759 27.8 284.2759ZM31.33125 288.05716Q31.33125 287.79153 31.471874 287.61966Q31.628124 287.44778 31.925 287.44778Q32.2375 287.44778 32.39375 287.61966Q32.565624 287.79153 32.565624 288.05716Q32.565624 288.29153 32.39375 288.4634Q32.2375 288.63528 31.925 288.63528Q31.628124 288.63528 31.471874 288.4634Q31.33125 288.29153 31.33125 288.05716ZM38.940624 282.79153Q38.940624 283.38528 38.628124 283.8384Q38.33125 284.29153 37.8 284.55716Q38.409374 284.80716 38.76875 285.32278Q39.128124 285.82278 39.128124 286.4634Q39.128124 287.47903 38.440624 288.0884Q37.753124 288.68216 36.64375 288.68216Q35.503124 288.68216 34.83125 288.0884Q34.159374 287.47903 34.159374 286.4634Q34.159374 285.82278 34.503124 285.32278Q34.846874 284.80716 35.45625 284.54153Q34.940624 284.29153 34.628124 283.8384Q34.33125 283.36966 34.33125 282.79153Q34.33125 281.80716 34.95625 281.22903Q35.596874 280.6509 36.64375 280.6509Q37.675 280.6509 38.3 281.22903Q38.940624 281.80716 38.940624 282.79153ZM38.128124 286.44778Q38.128124 285.79153 37.70625 285.38528Q37.3 284.9634 36.628124 284.9634Q35.95625 284.9634 35.55 285.36966Q35.14375 285.7759 35.14375 286.44778Q35.14375 287.10403 35.534374 287.49466Q35.940624 287.86966 36.64375 287.86966Q37.33125 287.86966 37.721874 287.49466Q38.128124 287.10403 38.128124 286.44778ZM36.64375 281.4634Q36.05 281.4634 35.690624 281.82278Q35.33125 282.18216 35.33125 282.80716Q35.33125 283.4009 35.690624 283.7759Q36.05 284.13528 36.64375 284.13528Q37.2375 284.13528 37.596874 283.7759Q37.95625 283.4009 37.95625 282.80716Q37.95625 282.2134 37.58125 281.8384Q37.20625 281.4634 36.64375 281.4634ZM40.1125 282.26028Q40.1125 281.55716 40.565624 281.10403Q41.01875 280.63528 41.721874 280.63528Q42.425 280.63528 42.8625 281.10403Q43.315624 281.55716 43.315624 282.29153L43.315624 282.66653Q43.315624 283.38528 42.8625 283.8384Q42.425 284.2759 41.721874 284.2759Q41.034374 284.2759 40.565624 283.8384Q40.1125 283.38528 40.1125 282.63528L40.1125 282.26028ZM40.8625 282.66653Q40.8625 283.0884 41.096874 283.36966Q41.33125 283.63528 41.721874 283.63528Q42.1125 283.63528 42.346874 283.36966Q42.58125 283.10403 42.58125 282.6509L42.58125 282.26028Q42.58125 281.8384 42.346874 281.57278Q42.1125 281.29153 41.70625 281.29153Q41.315624 281.29153 41.08125 281.57278Q40.8625 281.8384 40.8625 282.2759L40.8625 282.66653ZM43.925 286.6509Q43.925 285.94778 44.3625 285.49466Q44.815624 285.04153 45.51875 285.04153Q46.221874 285.04153 46.675 285.49466Q47.128124 285.94778 47.128124 286.69778L47.128124 287.07278Q47.128124 287.7759 46.675 288.22903Q46.2375 288.68216 45.534374 288.68216Q44.83125 288.68216 44.378124 288.24466Q43.925 287.79153 43.925 287.04153L43.925 286.6509ZM44.659374 287.07278Q44.659374 287.49466 44.89375 287.7759Q45.14375 288.04153 45.534374 288.04153Q45.925 288.04153 46.14375 287.7759Q46.378124 287.51028 46.378124 287.05716L46.378124 286.6509Q46.378124 286.22903 46.14375 285.9634Q45.909374 285.69778 45.51875 285.69778Q45.14375 285.69778 44.89375 285.9634Q44.659374 286.22903 44.659374 286.68216L44.659374 287.07278ZM41.95625 287.97903L41.39375 287.61966L45.20625 281.51028L45.76875 281.86966L41.95625 287.97903Z" fill-rule="nonzero"/><path stroke="#757575" stroke-width="1.0" stroke-linecap="butt" d="M18.55 276.07278L127.05 276.07278L241.1427 276.07278" fill-rule="nonzero"/><path fill="#9e9e9e" d="M243.1427 276.07278C243.1427 274.9682 242.24727 274.07278 241.1427 274.07278C240.03813 274.07278 239.1427 274.9682 239.1427 276.07278C239.1427 277.17737 240.03813 278.07278 241.1427 278.07278C242.24727 278.07278 243.1427 277.17737 243.1427 276.07278" fill-rule="nonzero"/><path fill="#efefef" d="M492.7625 72.48145L490.2469 72.48145L490.2469 79.4502L489.21564 79.4502L489.21564 72.48145L486.71564 72.48145L486.71564 71.62208L492.7625 71.62208L492.7625 72.48145ZM495.27814 79.4502L494.29376 79.4502L494.29376 73.6377L495.27814 73.6377L495.27814 79.4502ZM494.2 72.09083Q494.2 71.85645 494.34064 71.7002Q494.4969 71.52833 494.79376 71.52833Q495.09064 71.52833 495.23126 71.7002Q495.3875 71.85645 495.3875 72.10645Q495.3875 72.34083 495.23126 72.49708Q495.09064 72.65333 494.79376 72.65333Q494.4969 72.65333 494.34064 72.49708Q494.2 72.34083 494.2 72.09083ZM498.1375 73.6377L498.16876 74.37208Q498.84064 73.52833 499.91876 73.52833Q501.7625 73.52833 501.77814 75.60645L501.77814 79.4502L500.77814 79.4502L500.77814 75.60645Q500.77814 74.98145 500.4969 74.68458Q500.21564 74.37208 499.60626 74.37208Q499.1375 74.37208 498.7625 74.6377Q498.40314 74.8877 498.2 75.30958L498.2 79.4502L497.2 79.4502L497.2 73.6377L498.1375 73.6377ZM504.825 76.7627L504.2 77.40333L504.2 79.4502L503.2 79.4502L503.2 71.2002L504.2 71.2002L504.2 76.18458L504.73126 75.54395L506.54376 73.6377L507.7469 73.6377L505.4969 76.05958L508.0125 79.4502L506.85626 79.4502L504.825 76.7627ZM511.60626 79.55958Q510.4344 79.55958 509.6844 78.79395Q508.95 78.0127 508.95 76.7002L508.95 76.52833Q508.95 75.65333 509.27814 74.98145Q509.60626 74.29395 510.2 73.91895Q510.79376 73.52833 511.4969 73.52833Q512.6219 73.52833 513.2469 74.27833Q513.8875 75.02833 513.8875 76.41895L513.8875 76.8252L509.95 76.8252Q509.96564 77.68458 510.4344 78.21583Q510.91876 78.74708 511.66876 78.74708Q512.2 78.74708 512.5594 78.52833Q512.91876 78.30958 513.2 77.96583L513.8094 78.43458Q513.075 79.55958 511.60626 79.55958ZM511.4969 74.34083Q510.8875 74.34083 510.48126 74.77833Q510.075 75.21583 509.98126 76.0127L512.8875 76.0127L512.8875 75.93458Q512.84064 75.18458 512.46564 74.7627Q512.10626 74.34083 511.4969 74.34083ZM518.0125 74.52833Q517.77814 74.49708 517.52814 74.49708Q516.54376 74.49708 516.2 75.3252L516.2 79.4502L515.2 79.4502L515.2 73.6377L516.16876 73.6377L516.1844 74.30958Q516.66876 73.52833 517.575 73.52833Q517.85626 73.52833 518.0125 73.60645L518.0125 74.52833ZM520.27814 79.4502L519.29376 79.4502L519.29376 73.6377L520.27814 73.6377L520.27814 79.4502ZM519.2 72.09083Q519.2 71.85645 519.34064 71.7002Q519.4969 71.52833 519.79376 71.52833Q520.09064 71.52833 520.23126 71.7002Q520.3875 71.85645 520.3875 72.10645Q520.3875 72.34083 520.23126 72.49708Q520.09064 72.65333 519.79376 72.65333Q519.4969 72.65333 519.34064 72.49708Q519.2 72.34083 519.2 72.09083ZM523.1375 73.6377L523.16876 74.37208Q523.84064 73.52833 524.91876 73.52833Q526.7625 73.52833 526.77814 75.60645L526.77814 79.4502L525.77814 79.4502L525.77814 75.60645Q525.77814 74.98145 525.4969 74.68458Q525.21564 74.37208 524.60626 74.37208Q524.1375 74.37208 523.7625 74.6377Q523.40314 74.8877 523.2 75.30958L523.2 79.4502L522.2 79.4502L522.2 73.6377L523.1375 73.6377ZM527.96564 76.49708Q527.96564 75.1377 528.59064 74.34083Q529.21564 73.52833 530.2625 73.52833Q531.325 73.52833 531.91876 74.27833L531.96564 73.6377L532.8719 73.6377L532.8719 79.30958Q532.8719 80.43458 532.2 81.0752Q531.54376 81.73145 530.40314 81.73145Q529.77814 81.73145 529.16876 81.46583Q528.575 81.2002 528.2625 80.73145L528.77814 80.1377Q529.41876 80.93458 530.34064 80.93458Q531.0594 80.93458 531.46564 80.5127Q531.8719 80.10645 531.8719 79.37208L531.8719 78.87208Q531.27814 79.55958 530.2469 79.55958Q529.23126 79.55958 528.59064 78.74708Q527.96564 77.91895 527.96564 76.49708ZM528.96564 76.60645Q528.96564 77.59083 529.3719 78.15333Q529.77814 78.71583 530.4969 78.71583Q531.4344 78.71583 531.8719 77.85645L531.8719 75.2002Q531.41876 74.37208 530.5125 74.37208Q529.77814 74.37208 529.3719 74.93458Q528.96564 75.49708 528.96564 76.60645ZM534.40314 80.12208L533.54376 80.12208L536.8094 71.62208L537.66876 71.62208L534.40314 80.12208ZM540.3875 78.60645L544.10626 78.60645L544.10626 79.4502L539.35626 79.4502L539.35626 71.62208L540.3875 71.62208L540.3875 78.60645ZM547.60626 79.55958Q546.4344 79.55958 545.6844 78.79395Q544.95 78.0127 544.95 76.7002L544.95 76.52833Q544.95 75.65333 545.27814 74.98145Q545.60626 74.29395 546.2 73.91895Q546.79376 73.52833 547.4969 73.52833Q548.6219 73.52833 549.2469 74.27833Q549.8875 75.02833 549.8875 76.41895L549.8875 76.8252L545.95 76.8252Q545.96564 77.68458 546.4344 78.21583Q546.91876 78.74708 547.66876 78.74708Q548.2 78.74708 548.5594 78.52833Q548.91876 78.30958 549.2 77.96583L549.8094 78.43458Q549.075 79.55958 547.60626 79.55958ZM547.4969 74.34083Q546.8875 74.34083 546.48126 74.77833Q546.075 75.21583 545.98126 76.0127L548.8875 76.0127L548.8875 75.93458Q548.84064 75.18458 548.46564 74.7627Q548.10626 74.34083 547.4969 74.34083ZM554.79376 79.4502Q554.7 79.27833 554.65314 78.84083Q553.95 79.55958 552.9969 79.55958Q552.1375 79.55958 551.575 79.0752Q551.02814 78.59083 551.02814 77.84083Q551.02814 76.93458 551.71564 76.43458Q552.41876 75.91895 553.66876 75.91895L554.6375 75.91895L554.6375 75.46583Q554.6375 74.9502 554.325 74.6377Q554.0125 74.3252 553.40314 74.3252Q552.8719 74.3252 552.5125 74.60645Q552.15314 74.87208 552.15314 75.24708L551.15314 75.24708Q551.15314 74.80958 551.46564 74.40333Q551.77814 73.99708 552.29376 73.7627Q552.825 73.52833 553.46564 73.52833Q554.46564 73.52833 555.02814 74.02833Q555.60626 74.52833 555.6219 75.41895L555.6219 78.09083Q555.6219 78.8877 555.825 79.35645L555.825 79.4502L554.79376 79.4502ZM553.1375 78.7002Q553.60626 78.7002 554.02814 78.46583Q554.45 78.21583 554.6375 77.8252L554.6375 76.6377L553.85626 76.6377Q552.02814 76.6377 552.02814 77.7002Q552.02814 78.16895 552.34064 78.43458Q552.65314 78.7002 553.1375 78.7002ZM560.0125 74.52833Q559.77814 74.49708 559.52814 74.49708Q558.54376 74.49708 558.2 75.3252L558.2 79.4502L557.2 79.4502L557.2 73.6377L558.16876 73.6377L558.1844 74.30958Q558.66876 73.52833 559.575 73.52833Q559.85626 73.52833 560.0125 73.60645L560.0125 74.52833ZM562.1375 73.6377L562.16876 74.37208Q562.84064 73.52833 563.91876 73.52833Q565.7625 73.52833 565.77814 75.60645L565.77814 79.4502L564.77814 79.4502L564.77814 75.60645Q564.77814 74.98145 564.4969 74.68458Q564.21564 74.37208 563.60626 74.37208Q563.1375 74.37208 562.7625 74.6377Q562.40314 74.8877 562.2 75.30958L562.2 79.4502L561.2 79.4502L561.2 73.6377L562.1375 73.6377ZM568.27814 79.4502L567.29376 79.4502L567.29376 73.6377L568.27814 73.6377L568.27814 79.4502ZM567.2 72.09083Q567.2 71.85645 567.34064 71.7002Q567.4969 71.52833 567.79376 71.52833Q568.09064 71.52833 568.23126 71.7002Q568.3875 71.85645 568.3875 72.10645Q568.3875 72.34083 568.23126 72.49708Q568.09064 72.65333 567.79376 72.65333Q567.4969 72.65333 567.34064 72.49708Q567.2 72.34083 567.2 72.09083ZM571.1375 73.6377L571.16876 74.37208Q571.84064 73.52833 572.91876 73.52833Q574.7625 73.52833 574.77814 75.60645L574.77814 79.4502L573.77814 79.4502L573.77814 75.60645Q573.77814 74.98145 573.4969 74.68458Q573.21564 74.37208 572.60626 74.37208Q572.1375 74.37208 571.7625 74.6377Q571.40314 74.8877 571.2 75.30958L571.2 79.4502L570.2 79.4502L570.2 73.6377L571.1375 73.6377ZM575.96564 76.49708Q575.96564 75.1377 576.59064 74.34083Q577.21564 73.52833 578.2625 73.52833Q579.325 73.52833 579.91876 74.27833L579.96564 73.6377L580.8719 73.6377L580.8719 79.30958Q580.8719 80.43458 580.2 81.0752Q579.54376 81.73145 578.40314 81.73145Q577.77814 81.73145 577.16876 81.46583Q576.575 81.2002 576.2625 80.73145L576.77814 80.1377Q577.41876 80.93458 578.34064 80.93458Q579.0594 80.93458 579.46564 80.5127Q579.8719 80.10645 579.8719 79.37208L579.8719 78.87208Q579.27814 79.55958 578.2469 79.55958Q577.23126 79.55958 576.59064 78.74708Q575.96564 77.91895 575.96564 76.49708ZM576.96564 76.60645Q576.96564 77.59083 577.3719 78.15333Q577.77814 78.71583 578.4969 78.71583Q579.4344 78.71583 579.8719 77.85645L579.8719 75.2002Q579.41876 74.37208 578.5125 74.37208Q577.77814 74.37208 577.3719 74.93458Q576.96564 75.49708 576.96564 76.60645Z" fill-rule="nonzero"/><path fill="#9e9e9e" d="M558.23126 96.4502L553.10626 96.4502L553.10626 95.73145L555.8094 92.73145Q556.40314 92.04395 556.6375 91.62208Q556.8719 91.18458 556.8719 90.73145Q556.8719 90.12208 556.4969 89.73145Q556.1219 89.34083 555.5125 89.34083Q554.7625 89.34083 554.35626 89.7627Q553.95 90.18458 553.95 90.93458L552.95 90.93458Q552.95 89.85645 553.6375 89.2002Q554.34064 88.52833 555.5125 88.52833Q556.59064 88.52833 557.23126 89.10645Q557.8719 89.66895 557.8719 90.62208Q557.8719 91.77833 556.3875 93.37208L554.29376 95.6377L558.23126 95.6377L558.23126 96.4502ZM563.9969 93.12208Q563.9969 94.85645 563.40314 95.71583Q562.8094 96.55958 561.54376 96.55958Q560.29376 96.55958 559.6844 95.73145Q559.09064 94.90333 559.075 93.24708L559.075 91.91895Q559.075 90.2002 559.66876 89.37208Q560.2625 88.52833 561.52814 88.52833Q562.79376 88.52833 563.3875 89.34083Q563.98126 90.1377 563.9969 91.8252L563.9969 93.12208ZM563.0125 91.7627Q563.0125 90.49708 562.65314 89.91895Q562.29376 89.34083 561.52814 89.34083Q560.77814 89.34083 560.41876 89.91895Q560.075 90.48145 560.0594 91.68458L560.0594 93.2627Q560.0594 94.54395 560.41876 95.15333Q560.79376 95.74708 561.54376 95.74708Q562.27814 95.74708 562.6375 95.18458Q562.9969 94.60645 563.0125 93.3877L563.0125 91.7627ZM565.23126 95.93458Q565.23126 95.66895 565.3719 95.49708Q565.52814 95.3252 565.825 95.3252Q566.1375 95.3252 566.29376 95.49708Q566.46564 95.66895 566.46564 95.93458Q566.46564 96.16895 566.29376 96.34083Q566.1375 96.5127 565.825 96.5127Q565.52814 96.5127 565.3719 96.34083Q565.23126 96.16895 565.23126 95.93458ZM572.29376 93.8252L573.3875 93.8252L573.3875 94.6377L572.29376 94.6377L572.29376 96.4502L571.29376 96.4502L571.29376 94.6377L567.73126 94.6377L567.73126 94.04395L571.23126 88.62208L572.29376 88.62208L572.29376 93.8252ZM568.85626 93.8252L571.29376 93.8252L571.29376 89.98145L571.1844 90.2002L568.85626 93.8252ZM574.0125 90.1377Q574.0125 89.43458 574.46564 88.98145Q574.91876 88.5127 575.6219 88.5127Q576.325 88.5127 576.7625 88.98145Q577.21564 89.43458 577.21564 90.16895L577.21564 90.54395Q577.21564 91.2627 576.7625 91.71583Q576.325 92.15333 575.6219 92.15333Q574.9344 92.15333 574.46564 91.71583Q574.0125 91.2627 574.0125 90.5127L574.0125 90.1377ZM574.7625 90.54395Q574.7625 90.96583 574.9969 91.24708Q575.23126 91.5127 575.6219 91.5127Q576.0125 91.5127 576.2469 91.24708Q576.48126 90.98145 576.48126 90.52833L576.48126 90.1377Q576.48126 89.71583 576.2469 89.4502Q576.0125 89.16895 575.60626 89.16895Q575.21564 89.16895 574.98126 89.4502Q574.7625 89.71583 574.7625 90.15333L574.7625 90.54395ZM577.825 94.52833Q577.825 93.8252 578.2625 93.37208Q578.71564 92.91895 579.41876 92.91895Q580.1219 92.91895 580.575 93.37208Q581.02814 93.8252 581.02814 94.5752L581.02814 94.9502Q581.02814 95.65333 580.575 96.10645Q580.1375 96.55958 579.4344 96.55958Q578.73126 96.55958 578.27814 96.12208Q577.825 95.66895 577.825 94.91895L577.825 94.52833ZM578.5594 94.9502Q578.5594 95.37208 578.79376 95.65333Q579.04376 95.91895 579.4344 95.91895Q579.825 95.91895 580.04376 95.65333Q580.27814 95.3877 580.27814 94.93458L580.27814 94.52833Q580.27814 94.10645 580.04376 93.84083Q579.8094 93.5752 579.41876 93.5752Q579.04376 93.5752 578.79376 93.84083Q578.5594 94.10645 578.5594 94.55958L578.5594 94.9502ZM575.85626 95.85645L575.29376 95.49708L579.10626 89.3877L579.66876 89.74708L575.85626 95.85645Z" fill-rule="nonzero"/><path stroke="#757575" stroke-width="1.0" stroke-linecap="butt" d="M581.45 83.9502L472.95 83.9502L394.758 83.9502" fill-rule="nonzero"/><path fill="#9e9e9e" d="M396.758 83.9502C396.758 82.845634 395.86255 81.9502 394.758 81.9502C393.6534 81.9502 392.758 82.845634 392.758 83.9502C392.758 85.05477 393.6534 85.9502 394.758 85.9502C395.86255 85.9502 396.758 85.05477 396.758 83.9502" fill-rule="nonzero"/><path fill="#efefef" d="M515.77814 177.06331L512.3875 177.06331L512.3875 179.82893L516.325 179.82893L516.325 180.67268L511.35626 180.67268L511.35626 172.84456L516.27814 172.84456L516.27814 173.70393L512.3875 173.70393L512.3875 176.21956L515.77814 176.21956L515.77814 177.06331ZM519.10626 179.21956L520.45 174.86018L521.52814 174.86018L519.1844 181.56331Q518.6375 183.01643 517.46564 183.01643L517.27814 183.00081L516.90314 182.93831L516.90314 182.12581L517.16876 182.15706Q517.66876 182.15706 517.95 181.93831Q518.23126 181.73518 518.41876 181.20393L518.6375 180.61018L516.575 174.86018L517.65314 174.86018L519.10626 179.21956ZM524.60626 180.78206Q523.4344 180.78206 522.6844 180.01643Q521.95 179.23518 521.95 177.92268L521.95 177.75081Q521.95 176.87581 522.27814 176.20393Q522.60626 175.51643 523.2 175.14143Q523.79376 174.75081 524.4969 174.75081Q525.6219 174.75081 526.2469 175.50081Q526.8875 176.25081 526.8875 177.64143L526.8875 178.04768L522.95 178.04768Q522.96564 178.90706 523.4344 179.43831Q523.91876 179.96956 524.66876 179.96956Q525.2 179.96956 525.5594 179.75081Q525.91876 179.53206 526.2 179.18831L526.8094 179.65706Q526.075 180.78206 524.60626 180.78206ZM524.4969 175.56331Q523.8875 175.56331 523.48126 176.00081Q523.075 176.43831 522.98126 177.23518L525.8875 177.23518L525.8875 177.15706Q525.84064 176.40706 525.46564 175.98518Q525.10626 175.56331 524.4969 175.56331ZM531.6844 180.67268L531.6844 175.62581L530.77814 175.62581L530.77814 174.86018L531.6844 174.86018L531.6844 174.26643Q531.6844 173.32893 532.1844 172.82893Q532.6844 172.31331 533.60626 172.31331Q533.95 172.31331 534.27814 172.40706L534.23126 173.20393Q533.98126 173.15706 533.7 173.15706Q533.21564 173.15706 532.95 173.43831Q532.6844 173.71956 532.6844 174.25081L532.6844 174.86018L533.91876 174.86018L533.91876 175.62581L532.6844 175.62581L532.6844 180.67268L531.6844 180.67268ZM534.9344 177.71956Q534.9344 176.86018 535.2625 176.18831Q535.60626 175.50081 536.2 175.12581Q536.8094 174.75081 537.575 174.75081Q538.7625 174.75081 539.4969 175.57893Q540.23126 176.39143 540.23126 177.76643L540.23126 177.82893Q540.23126 178.67268 539.90314 179.36018Q539.575 180.03206 538.96564 180.40706Q538.3719 180.78206 537.59064 180.78206Q536.40314 180.78206 535.66876 179.96956Q534.9344 179.14143 534.9344 177.78206L534.9344 177.71956ZM535.9344 177.82893Q535.9344 178.79768 536.3875 179.39143Q536.84064 179.96956 537.59064 179.96956Q538.34064 179.96956 538.77814 179.37581Q539.23126 178.78206 539.23126 177.71956Q539.23126 176.75081 538.77814 176.15706Q538.325 175.56331 537.575 175.56331Q536.84064 175.56331 536.3875 176.15706Q535.9344 176.73518 535.9344 177.82893ZM544.0125 175.75081Q543.77814 175.71956 543.52814 175.71956Q542.54376 175.71956 542.2 176.54768L542.2 180.67268L541.2 180.67268L541.2 174.86018L542.16876 174.86018L542.1844 175.53206Q542.66876 174.75081 543.575 174.75081Q543.85626 174.75081 544.0125 174.82893L544.0125 175.75081ZM547.96564 177.71956Q547.96564 176.37581 548.59064 175.56331Q549.23126 174.75081 550.2469 174.75081Q551.27814 174.75081 551.8719 175.45393L551.8719 172.42268L552.8719 172.42268L552.8719 180.67268L551.95 180.67268L551.90314 180.04768Q551.3094 180.78206 550.2469 180.78206Q549.23126 180.78206 548.59064 179.95393Q547.96564 179.12581 547.96564 177.79768L547.96564 177.71956ZM548.95 177.82893Q548.95 178.81331 549.35626 179.37581Q549.77814 179.93831 550.4969 179.93831Q551.4344 179.93831 551.8719 179.09456L551.8719 176.42268Q551.41876 175.59456 550.4969 175.59456Q549.77814 175.59456 549.35626 176.15706Q548.95 176.71956 548.95 177.82893ZM556.60626 180.78206Q555.4344 180.78206 554.6844 180.01643Q553.95 179.23518 553.95 177.92268L553.95 177.75081Q553.95 176.87581 554.27814 176.20393Q554.60626 175.51643 555.2 175.14143Q555.79376 174.75081 556.4969 174.75081Q557.6219 174.75081 558.2469 175.50081Q558.8875 176.25081 558.8875 177.64143L558.8875 178.04768L554.95 178.04768Q554.96564 178.90706 555.4344 179.43831Q555.91876 179.96956 556.66876 179.96956Q557.2 179.96956 557.5594 179.75081Q557.91876 179.53206 558.2 179.18831L558.8094 179.65706Q558.075 180.78206 556.60626 180.78206ZM556.4969 175.56331Q555.8875 175.56331 555.48126 176.00081Q555.075 176.43831 554.98126 177.23518L557.8875 177.23518L557.8875 177.15706Q557.84064 176.40706 557.46564 175.98518Q557.10626 175.56331 556.4969 175.56331ZM561.54376 173.45393L561.54376 174.86018L562.6375 174.86018L562.6375 175.62581L561.54376 175.62581L561.54376 179.23518Q561.54376 179.57893 561.6844 179.76643Q561.84064 179.93831 562.1844 179.93831Q562.35626 179.93831 562.66876 179.86018L562.66876 180.67268Q562.2625 180.78206 561.90314 180.78206Q561.23126 180.78206 560.8875 180.37581Q560.5594 179.96956 560.5594 179.23518L560.5594 175.62581L559.4969 175.62581L559.4969 174.86018L560.5594 174.86018L560.5594 173.45393L561.54376 173.45393ZM567.79376 180.67268Q567.7 180.50081 567.65314 180.06331Q566.95 180.78206 565.9969 180.78206Q565.1375 180.78206 564.575 180.29768Q564.02814 179.81331 564.02814 179.06331Q564.02814 178.15706 564.71564 177.65706Q565.41876 177.14143 566.66876 177.14143L567.6375 177.14143L567.6375 176.68831Q567.6375 176.17268 567.325 175.86018Q567.0125 175.54768 566.40314 175.54768Q565.8719 175.54768 565.5125 175.82893Q565.15314 176.09456 565.15314 176.46956L564.15314 176.46956Q564.15314 176.03206 564.46564 175.62581Q564.77814 175.21956 565.29376 174.98518Q565.825 174.75081 566.46564 174.75081Q567.46564 174.75081 568.02814 175.25081Q568.60626 175.75081 568.6219 176.64143L568.6219 179.31331Q568.6219 180.11018 568.825 180.57893L568.825 180.67268L567.79376 180.67268ZM566.1375 179.92268Q566.60626 179.92268 567.02814 179.68831Q567.45 179.43831 567.6375 179.04768L567.6375 177.86018L566.85626 177.86018Q565.02814 177.86018 565.02814 178.92268Q565.02814 179.39143 565.34064 179.65706Q565.65314 179.92268 566.1375 179.92268ZM571.27814 180.67268L570.29376 180.67268L570.29376 174.86018L571.27814 174.86018L571.27814 180.67268ZM570.2 173.31331Q570.2 173.07893 570.34064 172.92268Q570.4969 172.75081 570.79376 172.75081Q571.09064 172.75081 571.23126 172.92268Q571.3875 173.07893 571.3875 173.32893Q571.3875 173.56331 571.23126 173.71956Q571.09064 173.87581 570.79376 173.87581Q570.4969 173.87581 570.34064 173.71956Q570.2 173.56331 570.2 173.31331ZM574.27814 180.67268L573.29376 180.67268L573.29376 172.42268L574.27814 172.42268L574.27814 180.67268ZM579.59064 179.12581Q579.59064 178.73518 579.27814 178.51643Q578.98126 178.28206 578.21564 178.12581Q577.46564 177.95393 577.02814 177.73518Q576.59064 177.51643 576.3719 177.20393Q576.15314 176.89143 576.15314 176.45393Q576.15314 175.73518 576.7625 175.25081Q577.3719 174.75081 578.3094 174.75081Q579.29376 174.75081 579.90314 175.26643Q580.52814 175.76643 580.52814 176.56331L579.52814 176.56331Q579.52814 176.15706 579.1844 175.86018Q578.84064 175.56331 578.3094 175.56331Q577.7625 175.56331 577.45 175.81331Q577.15314 176.04768 577.15314 176.42268Q577.15314 176.78206 577.4344 176.96956Q577.71564 177.14143 578.46564 177.31331Q579.21564 177.48518 579.66876 177.71956Q580.1375 177.93831 580.35626 178.26643Q580.575 178.59456 580.575 179.06331Q580.575 179.84456 579.95 180.31331Q579.34064 180.78206 578.34064 180.78206Q577.6375 180.78206 577.10626 180.53206Q576.575 180.28206 576.2625 179.84456Q575.96564 179.40706 575.96564 178.89143L576.95 178.89143Q576.98126 179.37581 577.35626 179.67268Q577.73126 179.96956 578.34064 179.96956Q578.90314 179.96956 579.2469 179.75081Q579.59064 179.51643 579.59064 179.12581Z" fill-rule="nonzero"/><path fill="#9e9e9e" d="M556.3719 197.67268L555.3719 197.67268L555.3719 191.04768L553.35626 191.78206L553.35626 190.87581L556.21564 189.81331L556.3719 189.81331L556.3719 197.67268ZM564.23126 197.67268L559.10626 197.67268L559.10626 196.95393L561.8094 193.95393Q562.40314 193.26643 562.6375 192.84456Q562.8719 192.40706 562.8719 191.95393Q562.8719 191.34456 562.4969 190.95393Q562.1219 190.56331 561.5125 190.56331Q560.7625 190.56331 560.35626 190.98518Q559.95 191.40706 559.95 192.15706L558.95 192.15706Q558.95 191.07893 559.6375 190.42268Q560.34064 189.75081 561.5125 189.75081Q562.59064 189.75081 563.23126 190.32893Q563.8719 190.89143 563.8719 191.84456Q563.8719 193.00081 562.3875 194.59456L560.29376 196.86018L564.23126 196.86018L564.23126 197.67268ZM565.23126 197.15706Q565.23126 196.89143 565.3719 196.71956Q565.52814 196.54768 565.825 196.54768Q566.1375 196.54768 566.29376 196.71956Q566.46564 196.89143 566.46564 197.15706Q566.46564 197.39143 566.29376 197.56331Q566.1375 197.73518 565.825 197.73518Q565.52814 197.73518 565.3719 197.56331Q565.23126 197.39143 565.23126 197.15706ZM573.15314 190.40706L569.90314 197.67268L568.8719 197.67268L572.09064 190.67268L567.85626 190.67268L567.85626 189.84456L573.15314 189.84456L573.15314 190.40706ZM574.0125 191.36018Q574.0125 190.65706 574.46564 190.20393Q574.91876 189.73518 575.6219 189.73518Q576.325 189.73518 576.7625 190.20393Q577.21564 190.65706 577.21564 191.39143L577.21564 191.76643Q577.21564 192.48518 576.7625 192.93831Q576.325 193.37581 575.6219 193.37581Q574.9344 193.37581 574.46564 192.93831Q574.0125 192.48518 574.0125 191.73518L574.0125 191.36018ZM574.7625 191.76643Q574.7625 192.18831 574.9969 192.46956Q575.23126 192.73518 575.6219 192.73518Q576.0125 192.73518 576.2469 192.46956Q576.48126 192.20393 576.48126 191.75081L576.48126 191.36018Q576.48126 190.93831 576.2469 190.67268Q576.0125 190.39143 575.60626 190.39143Q575.21564 190.39143 574.98126 190.67268Q574.7625 190.93831 574.7625 191.37581L574.7625 191.76643ZM577.825 195.75081Q577.825 195.04768 578.2625 194.59456Q578.71564 194.14143 579.41876 194.14143Q580.1219 194.14143 580.575 194.59456Q581.02814 195.04768 581.02814 195.79768L581.02814 196.17268Q581.02814 196.87581 580.575 197.32893Q580.1375 197.78206 579.4344 197.78206Q578.73126 197.78206 578.27814 197.34456Q577.825 196.89143 577.825 196.14143L577.825 195.75081ZM578.5594 196.17268Q578.5594 196.59456 578.79376 196.87581Q579.04376 197.14143 579.4344 197.14143Q579.825 197.14143 580.04376 196.87581Q580.27814 196.61018 580.27814 196.15706L580.27814 195.75081Q580.27814 195.32893 580.04376 195.06331Q579.8094 194.79768 579.41876 194.79768Q579.04376 194.79768 578.79376 195.06331Q578.5594 195.32893 578.5594 195.78206L578.5594 196.17268ZM575.85626 197.07893L575.29376 196.71956L579.10626 190.61018L579.66876 190.96956L575.85626 197.07893Z" fill-rule="nonzero"/><path stroke="#757575" stroke-width="1.0" stroke-linecap="butt" d="M581.45 185.17268L472.95 185.17268L457.64294 185.17268" fill-rule="nonzero"/><path fill="#9e9e9e" d="M459.64294 185.17268C459.64294 184.06812 458.74753 183.17268 457.64294 183.17268C456.5384 183.17268 455.64294 184.06812 455.64294 185.17268C455.64294 186.27725 456.5384 187.17268 457.64294 187.17268C458.74753 187.17268 459.64294 186.27725 459.64294 185.17268" fill-rule="nonzero"/><path fill="#efefef" d="M518.85626 241.0937L518.85626 246.42183Q518.85626 247.5312 518.16876 248.23433Q517.48126 248.93745 516.29376 249.01558L516.02814 249.0312Q514.73126 249.0312 513.96564 248.3437Q513.21564 247.64058 513.2 246.42183L513.2 241.0937L514.21564 241.0937L514.21564 246.39058Q514.21564 247.24995 514.6844 247.7187Q515.15314 248.18745 516.02814 248.18745Q516.90314 248.18745 517.35626 247.7187Q517.825 247.24995 517.825 246.4062L517.825 241.0937L518.85626 241.0937ZM525.10626 246.07808Q525.10626 247.4062 524.4969 248.2187Q523.90314 249.0312 522.85626 249.0312Q521.8094 249.0312 521.2 248.35933L521.2 251.1562L520.2 251.1562L520.2 243.10933L521.10626 243.10933L521.15314 243.74995Q521.7625 242.99995 522.84064 242.99995Q523.8875 242.99995 524.4969 243.79683Q525.10626 244.57808 525.10626 245.98433L525.10626 246.07808ZM524.1219 245.9687Q524.1219 244.98433 523.7 244.42183Q523.27814 243.8437 522.54376 243.8437Q521.65314 243.8437 521.2 244.64058L521.2 247.42183Q521.6375 248.2187 522.5594 248.2187Q523.27814 248.2187 523.7 247.6562Q524.1219 247.07808 524.1219 245.9687ZM529.6844 248.92183L529.6844 243.87495L528.77814 243.87495L528.77814 243.10933L529.6844 243.10933L529.6844 242.51558Q529.6844 241.57808 530.1844 241.07808Q530.6844 240.56245 531.60626 240.56245Q531.95 240.56245 532.27814 240.6562L532.23126 241.45308Q531.98126 241.4062 531.7 241.4062Q531.21564 241.4062 530.95 241.68745Q530.6844 241.9687 530.6844 242.49995L530.6844 243.10933L531.91876 243.10933L531.91876 243.87495L530.6844 243.87495L530.6844 248.92183L529.6844 248.92183ZM532.9344 245.9687Q532.9344 245.10933 533.2625 244.43745Q533.60626 243.74995 534.2 243.37495Q534.8094 242.99995 535.575 242.99995Q536.7625 242.99995 537.4969 243.82808Q538.23126 244.64058 538.23126 246.01558L538.23126 246.07808Q538.23126 246.92183 537.90314 247.60933Q537.575 248.2812 536.96564 248.6562Q536.3719 249.0312 535.59064 249.0312Q534.40314 249.0312 533.66876 248.2187Q532.9344 247.39058 532.9344 246.0312L532.9344 245.9687ZM533.9344 246.07808Q533.9344 247.04683 534.3875 247.64058Q534.84064 248.2187 535.59064 248.2187Q536.34064 248.2187 536.77814 247.62495Q537.23126 247.0312 537.23126 245.9687Q537.23126 244.99995 536.77814 244.4062Q536.325 243.81245 535.575 243.81245Q534.84064 243.81245 534.3875 244.4062Q533.9344 244.98433 533.9344 246.07808ZM542.0125 243.99995Q541.77814 243.9687 541.52814 243.9687Q540.54376 243.9687 540.2 244.79683L540.2 248.92183L539.2 248.92183L539.2 243.10933L540.16876 243.10933L540.1844 243.7812Q540.66876 242.99995 541.575 242.99995Q541.85626 242.99995 542.0125 243.07808L542.0125 243.99995ZM549.79376 248.92183Q549.7 248.74995 549.65314 248.31245Q548.95 249.0312 547.9969 249.0312Q547.1375 249.0312 546.575 248.54683Q546.02814 248.06245 546.02814 247.31245Q546.02814 246.4062 546.71564 245.9062Q547.41876 245.39058 548.66876 245.39058L549.6375 245.39058L549.6375 244.93745Q549.6375 244.42183 549.325 244.10933Q549.0125 243.79683 548.40314 243.79683Q547.8719 243.79683 547.5125 244.07808Q547.15314 244.3437 547.15314 244.7187L546.15314 244.7187Q546.15314 244.2812 546.46564 243.87495Q546.77814 243.4687 547.29376 243.23433Q547.825 242.99995 548.46564 242.99995Q549.46564 242.99995 550.02814 243.49995Q550.60626 243.99995 550.6219 244.89058L550.6219 247.56245Q550.6219 248.35933 550.825 248.82808L550.825 248.92183L549.79376 248.92183ZM548.1375 248.17183Q548.60626 248.17183 549.02814 247.93745Q549.45 247.68745 549.6375 247.29683L549.6375 246.10933L548.85626 246.10933Q547.02814 246.10933 547.02814 247.17183Q547.02814 247.64058 547.34064 247.9062Q547.65314 248.17183 548.1375 248.17183ZM556.27814 248.92183L555.29376 248.92183L555.29376 240.67183L556.27814 240.67183L556.27814 248.92183ZM561.79376 248.92183Q561.7 248.74995 561.65314 248.31245Q560.95 249.0312 559.9969 249.0312Q559.1375 249.0312 558.575 248.54683Q558.02814 248.06245 558.02814 247.31245Q558.02814 246.4062 558.71564 245.9062Q559.41876 245.39058 560.66876 245.39058L561.6375 245.39058L561.6375 244.93745Q561.6375 244.42183 561.325 244.10933Q561.0125 243.79683 560.40314 243.79683Q559.8719 243.79683 559.5125 244.07808Q559.15314 244.3437 559.15314 244.7187L558.15314 244.7187Q558.15314 244.2812 558.46564 243.87495Q558.77814 243.4687 559.29376 243.23433Q559.825 242.99995 560.46564 242.99995Q561.46564 242.99995 562.02814 243.49995Q562.60626 243.99995 562.6219 244.89058L562.6219 247.56245Q562.6219 248.35933 562.825 248.82808L562.825 248.92183L561.79376 248.92183ZM560.1375 248.17183Q560.60626 248.17183 561.02814 247.93745Q561.45 247.68745 561.6375 247.29683L561.6375 246.10933L560.85626 246.10933Q559.02814 246.10933 559.02814 247.17183Q559.02814 247.64058 559.34064 247.9062Q559.65314 248.17183 560.1375 248.17183ZM567.79376 248.3437Q567.21564 249.0312 566.09064 249.0312Q565.15314 249.0312 564.66876 248.49995Q564.1844 247.95308 564.1844 246.89058L564.1844 243.10933L565.16876 243.10933L565.16876 246.85933Q565.16876 248.18745 566.2469 248.18745Q567.3875 248.18745 567.7625 247.3437L567.7625 243.10933L568.7625 243.10933L568.7625 248.92183L567.8094 248.92183L567.79376 248.3437ZM569.96564 245.9687Q569.96564 244.60933 570.59064 243.81245Q571.21564 242.99995 572.2625 242.99995Q573.325 242.99995 573.91876 243.74995L573.96564 243.10933L574.8719 243.10933L574.8719 248.7812Q574.8719 249.9062 574.2 250.54683Q573.54376 251.20308 572.40314 251.20308Q571.77814 251.20308 571.16876 250.93745Q570.575 250.67183 570.2625 250.20308L570.77814 249.60933Q571.41876 250.4062 572.34064 250.4062Q573.0594 250.4062 573.46564 249.98433Q573.8719 249.57808 573.8719 248.8437L573.8719 248.3437Q573.27814 249.0312 572.2469 249.0312Q571.23126 249.0312 570.59064 248.2187Q569.96564 247.39058 569.96564 245.9687ZM570.96564 246.07808Q570.96564 247.06245 571.3719 247.62495Q571.77814 248.18745 572.4969 248.18745Q573.4344 248.18745 573.8719 247.32808L573.8719 244.67183Q573.41876 243.8437 572.5125 243.8437Q571.77814 243.8437 571.3719 244.4062Q570.96564 244.9687 570.96564 246.07808ZM577.2 243.81245Q577.85626 242.99995 578.91876 242.99995Q580.7625 242.99995 580.77814 245.07808L580.77814 248.92183L579.77814 248.92183L579.77814 245.07808Q579.77814 244.45308 579.4969 244.1562Q579.21564 243.8437 578.60626 243.8437Q578.1375 243.8437 577.7625 244.10933Q577.40314 244.35933 577.2 244.7812L577.2 248.92183L576.2 248.92183L576.2 240.67183L577.2 240.67183L577.2 243.81245Z" fill-rule="nonzero"/><path fill="#9e9e9e" d="M562.90314 262.4843Q562.59064 262.8593 562.15314 263.0937Q561.73126 263.31244 561.21564 263.31244Q560.54376 263.31244 560.02814 262.9843Q559.52814 262.64056 559.2469 262.0468Q558.98126 261.43744 558.98126 260.70306Q558.98126 259.9218 559.27814 259.2968Q559.59064 258.6562 560.1375 258.32806Q560.6844 257.99994 561.40314 257.99994Q562.575 257.99994 563.23126 258.87494Q563.90314 259.7343 563.90314 261.2343L563.90314 261.51556Q563.90314 263.7968 562.9969 264.8593Q562.10626 265.9062 560.27814 265.9218L560.09064 265.9218L560.09064 265.0937L560.29376 265.0937Q561.52814 265.06244 562.1844 264.45306Q562.85626 263.82806 562.90314 262.4843ZM561.3719 262.4843Q561.8719 262.4843 562.29376 262.18744Q562.71564 261.87494 562.91876 261.4218L562.91876 261.01556Q562.91876 260.0468 562.48126 259.43744Q562.0594 258.82806 561.41876 258.82806Q560.7625 258.82806 560.35626 259.32806Q559.96564 259.82806 559.96564 260.64056Q559.96564 261.45306 560.34064 261.9687Q560.73126 262.4843 561.3719 262.4843ZM565.23126 265.4062Q565.23126 265.14056 565.3719 264.9687Q565.52814 264.7968 565.825 264.7968Q566.1375 264.7968 566.29376 264.9687Q566.46564 265.14056 566.46564 265.4062Q566.46564 265.64056 566.29376 265.81244Q566.1375 265.9843 565.825 265.9843Q565.52814 265.9843 565.3719 265.81244Q565.23126 265.64056 565.23126 265.4062ZM571.9969 258.0937L571.9969 258.93744L571.8094 258.93744Q570.65314 258.95306 569.96564 259.62494Q569.27814 260.2968 569.16876 261.49994Q569.79376 260.7968 570.85626 260.7968Q571.8875 260.7968 572.4969 261.51556Q573.10626 262.2343 573.10626 263.37494Q573.10626 264.57806 572.4344 265.31244Q571.77814 266.0312 570.6844 266.0312Q569.5594 266.0312 568.85626 265.1718Q568.15314 264.31244 568.15314 262.95306L568.15314 262.56244Q568.15314 260.4062 569.075 259.26556Q569.9969 258.12494 571.825 258.0937L571.9969 258.0937ZM570.7 261.62494Q570.1844 261.62494 569.7469 261.93744Q569.325 262.2343 569.15314 262.68744L569.15314 263.06244Q569.15314 264.0312 569.59064 264.62494Q570.02814 265.20306 570.6844 265.20306Q571.35626 265.20306 571.73126 264.7187Q572.1219 264.2187 572.1219 263.4218Q572.1219 262.6093 571.73126 262.12494Q571.34064 261.62494 570.7 261.62494ZM574.0125 259.6093Q574.0125 258.9062 574.46564 258.45306Q574.91876 257.9843 575.6219 257.9843Q576.325 257.9843 576.7625 258.45306Q577.21564 258.9062 577.21564 259.64056L577.21564 260.01556Q577.21564 260.7343 576.7625 261.18744Q576.325 261.62494 575.6219 261.62494Q574.9344 261.62494 574.46564 261.18744Q574.0125 260.7343 574.0125 259.9843L574.0125 259.6093ZM574.7625 260.01556Q574.7625 260.43744 574.9969 260.7187Q575.23126 260.9843 575.6219 260.9843Q576.0125 260.9843 576.2469 260.7187Q576.48126 260.45306 576.48126 259.99994L576.48126 259.6093Q576.48126 259.18744 576.2469 258.9218Q576.0125 258.64056 575.60626 258.64056Q575.21564 258.64056 574.98126 258.9218Q574.7625 259.18744 574.7625 259.62494L574.7625 260.01556ZM577.825 263.99994Q577.825 263.2968 578.2625 262.8437Q578.71564 262.39056 579.41876 262.39056Q580.1219 262.39056 580.575 262.8437Q581.02814 263.2968 581.02814 264.0468L581.02814 264.4218Q581.02814 265.12494 580.575 265.57806Q580.1375 266.0312 579.4344 266.0312Q578.73126 266.0312 578.27814 265.5937Q577.825 265.14056 577.825 264.39056L577.825 263.99994ZM578.5594 264.4218Q578.5594 264.8437 578.79376 265.12494Q579.04376 265.39056 579.4344 265.39056Q579.825 265.39056 580.04376 265.12494Q580.27814 264.8593 580.27814 264.4062L580.27814 263.99994Q580.27814 263.57806 580.04376 263.31244Q579.8094 263.0468 579.41876 263.0468Q579.04376 263.0468 578.79376 263.31244Q578.5594 263.57806 578.5594 264.0312L578.5594 264.4218ZM575.85626 265.32806L575.29376 264.9687L579.10626 258.8593L579.66876 259.2187L575.85626 265.32806Z" fill-rule="nonzero"/><path stroke="#757575" stroke-width="1.0" stroke-linecap="butt" d="M581.45 253.42183L472.95 253.42183L409.30896 253.42183" fill-rule="nonzero"/><path fill="#9e9e9e" d="M411.30896 253.42183C411.30896 252.31726 410.41354 251.42183 409.30896 251.42183C408.2044 251.42183 407.30896 252.31726 407.30896 253.42183C407.30896 254.5264 408.2044 255.42183 409.30896 255.42183C410.41354 255.42183 411.30896 254.5264 411.30896 253.42183" fill-rule="nonzero"/></svg>